<svg width="16" height="16" viewBox="0 0 16 16" fill="none" xmlns="http://www.w3.org/2000/svg">
<path fill-rule="evenodd" clip-rule="evenodd" d="M6.75002 2.23335C4.25553 2.23335 2.23335 4.25553 2.23335 6.75002C2.23335 9.2445 4.25553 11.2667 6.75002 11.2667C7.99751 11.2667 9.12544 10.7621 9.94378 9.94378C10.7621 9.12544 11.2667 7.99751 11.2667 6.75002C11.2667 4.25553 9.2445 2.23335 6.75002 2.23335ZM0.43335 6.75002C0.43335 3.26142 3.26142 0.43335 6.75002 0.43335C10.2386 0.43335 13.0667 3.26142 13.0667 6.75002C13.0667 8.16934 12.5978 9.48028 11.8076 10.5348L15.3031 14.0303C15.6545 14.3818 15.6545 14.9516 15.3031 15.3031C14.9516 15.6545 14.3818 15.6545 14.0303 15.3031L10.5348 11.8076C9.48028 12.5978 8.16934 13.0667 6.75002 13.0667C3.26142 13.0667 0.43335 10.2386 0.43335 6.75002Z" fill="#333333"/>
</svg>
